# xmcd CD database file
# Copyright (C) 1995-1998 Ti Kan
#
# Track frame offsets:
#	182
#	10542
#	22600
#	32175
#	39162
#	46475
#	56642
#	66047
#	76722
#	84615
#	94147
#	105027
#	114197
#	122972
#	130067
#	142727
#	153950
#	170057
#	179645
#	196312
#	205977
#	225827
#	233217
#
# Disc length: 3212 seconds
#
# Revision: 1
# Processed by: cddbd v1.4PL0 Copyright (c) Steve Scherf et al.
# Submitted via: CDex 1.30
#
DISCID=130c8a17
DTITLE=Nashville Children's Chorus - A Kid's Christmas
DYEAR=2001
DGENRE=Country
TTITLE0=JIngle Bell Rock
TTITLE1=Rockin' Around The Christmas Tree
TTITLE2=Frosty The Snowman
TTITLE3=All I Want for Christmas Is My Two Front Teeth
TTITLE4=Nuttin' For Christmas
TTITLE5=Santa Claus I Coming To Town
TTITLE6=Rudolph The Red-Nosed Reindeer
TTITLE7=Jingle Bells
TTITLE8=Here Comes Santa Claus
TTITLE9=Little Saint Nick
TTITLE10=It's Beginning To Look Like Christmas
TTITLE11=Jolly Ol' St. Nicholas
TTITLE12=I Saw Mommy Kissing Santa Claus
TTITLE13=Up On The Housetop
TTITLE14=Sleigh Ride
TTITLE15=HOme For The Holidays
TTITLE16=Silver Bells
TTITLE17=O Christmas Tree
TTITLE18=The Christmas Song
TTITLE19=Winter Wonderland
TTITLE20=The Twelve Days Of Christmas
TTITLE21=Deck The Halls
TTITLE22=We Wish You A Merry Christmas
EXTD=\nYEAR: 2001  ID3G:   2
EXTT0=
EXTT1=
EXTT2=
EXTT3=
EXTT4=
EXTT5=
EXTT6=
EXTT7=
EXTT8=
EXTT9=
EXTT10=
EXTT11=
EXTT12=
EXTT13=
EXTT14=
EXTT15=
EXTT16=
EXTT17=
EXTT18=
EXTT19=
EXTT20=
EXTT21=
EXTT22=
PLAYORDER=
